<svg width="62" height="62" fill="none" xmlns="http://www.w3.org/2000/svg"><path d="M54.188 22.68l-.034.387.248.298L60.777 31l-6.373 7.635-.25.298.035.386.887 10.086-9.384 2.233-.399.095-.202.357-4.904 8.672-8.8-3.959-.387-.174-.387.175-8.799 3.986-4.903-8.67-.202-.357-.399-.095-9.384-2.233.887-10.116.034-.386-.248-.298L1.223 31l6.376-7.665.247-.297-.034-.386-.887-10.113 9.382-2.205.4-.095.203-.357 4.904-8.673 8.8 3.96.386.173.385-.174 8.8-3.958 4.905 8.7.201.357.4.095 9.384 2.234-.887 10.086z" stroke="#F8F200" stroke-width="1.879"/></svg>