<svg width="117" height="50" fill="none" xmlns="http://www.w3.org/2000/svg"><path d="M8.468 44.551c.723-.778 1.574-1.657 2.082-2.07-.143-.012-.369-.04-.613-.077-.53.482-1.205 1.187-1.81 1.833a65.306 65.306 0 00-1.398 1.552c-.01.007-.013.02-.023.028-.5.138-1.35.372-1.916.526-.838.232-1.59.175-1.59.723 0 0-.867.465-.665 1.158 0 0 1.74-1.39 3.23-1.625 0 0-.91.592-.827 1.394 0 0 1.226-1.834 2.657-.722 0 0-.638-.867-.372-1.344.229-.26.703-.792 1.245-1.376zM5.711 22.897a.566.566 0 01-.233.046.645.645 0 01-.596-.405.348.348 0 01-.025-.071l-.189.062c.159.463.637.717 1.068.567a.773.773 0 00.281-.17.883.883 0 00.215-.93l-.433.147a.523.523 0 01.046.207.414.414 0 01-.037.177l.198.12a.7.7 0 01-.127.147.528.528 0 01-.168.103zm17.538-1.404l-8.56 2.087v-.009l.003.01 16.72-7.233-13.78 1.687 7.376-5.386-7.903 3.085 1.193-2.395-5.654 4.071-.047-.086L20.612 0 7.578 15.424l-.082-8.41-4.782 11.24-.249-3.313L.11 23.563l.004-.002v.002s.318-.235.745-.363l.103-.028c.005 0 .009-.004.014-.004.035-.007.069-.015.103-.02.004 0 .01-.005.016-.005a.905.905 0 01.109-.013v-.004l.107-.008h.023a.665.665 0 01.124.003.49.49 0 01.099.01l.018.001a.821.821 0 01.13.026c.035.009.072.019.112.032.806.292 1.491 0 1.491 0s.76.487.76.896h-.003v.002s-.998.058-.998-.384c0 0-1.278-.454-3.065.209l3.77 1.62c-.003-.017-.202-.719.016-.963.069-.084.19-.114.379-.05.069.025.119.019.15-.011.293-.303-1.128-2.927-1.128-2.927S1.91 21.458.807 22.613a3.39 3.39 0 00-.22.249v-.004.004a4.82 4.82 0 011.068-1.261c.358-.3.806-.57 1.34-.722.146-.35-.04-.122.262-.307.002 0 .002-.003.002-.003.142-.925.666-3.308 2.473-5.347.122-.135.246-.272.379-.401 0 0-.463.87-.463 1.476.013-.015.47-.701 1.103-1.329v-.002s-.008.01-.017.027c-.117.251-.98 2.09-.89 2.627.003.005.005.008.005.013l1.742-1.595-.007.004c-.05.07-1.636 2.212-1.792 2.947v.005l2.637-1.884-.002.003c-.01.016-.332.467-.469.714-.096.177-.11.237-.11.255l.004.014 1.42-.608s-.061.073-.16.18l-.529.538-.13.138-.961.97-.018.023-.73.742-.47.478s-.383.399-.43.606c-.045.203.171.329.171.329h-.002c.195.109.353.277.445.479.051.122.08.255.08.397 0 .28-.114.533-.306.716a1.067 1.067 0 01-1.428.05c.032.043.551.695 1.505.188l1.178-.858.05-.04 1.218-.89c.288.338.559.747.805 1.21a86.374 86.374 0 00-3.19 3.183 41.38 41.38 0 00-2.092 2.369l.44-2.064.036-.17s-.002 0-.002.003c-.005.002-.008.002-.011.005 0 .002-.006.005-.006.005-.004.002-.009.002-.012.01a.006.006 0 00-.006.006.05.05 0 00-.016.009c-.003.001-.004.008-.012.01-.004.002-.01.009-.017.01a.05.05 0 01-.015.014c-.005.005-.008.01-.018.012-.007.007-.011.014-.019.017-.006.006-.013.014-.02.015a.053.053 0 01-.02.02l-.026.021a.126.126 0 00-.02.02c-.01.008-.021.014-.028.025-.012.005-.016.013-.028.017-.007.012-.018.02-.03.03-.006.008-.018.016-.025.025-.012.01-.026.02-.035.033-.009.008-.015.016-.027.022a.155.155 0 01-.04.04.123.123 0 00-.022.022.275.275 0 01-.026.023c0 .003-.002.003-.002.003a.798.798 0 00-.04.043c-.013.007-.022.02-.03.03-.017.013-.029.027-.042.04-.012.01-.024.024-.035.034-.009.014-.02.025-.027.034-.005.003-.011.01-.016.015 0 .002-.005.005-.01.01l-.025.026c-.011.014-.023.024-.034.038-.003.005-.005.009-.01.01l-.013.012a.097.097 0 01-.023.027.248.248 0 01-.046.05c-.012.018-.026.03-.037.048l-.046.051-.04.048c-.017.02-.03.04-.05.059l-.04.05-.05.064c-.013.012-.024.03-.039.046-.017.026-.036.048-.054.073-.014.018-.026.03-.035.047l-.069.089c-.007.012-.019.025-.025.036-.032.045-.066.09-.097.136l-.004.005-.092.134a.587.587 0 01-.027.043c-.021.034-.046.07-.069.105-.012.018-.021.035-.035.052-.02.035-.041.065-.064.1l-.034.058c-.019.035-.042.07-.064.104-.01.021-.023.041-.034.063-.022.035-.04.071-.063.106-.012.018-.025.043-.037.064-.021.04-.042.075-.063.112l-.033.067c-.097.179-.191.363-.288.563v.003l-.485.081c.097-.25.193-.476.297-.69l-.79 1.112.79-.077c-.676 1.553-1.172 3.586-1.172 6.48l.643-.406c.568 3.231 3.233 4.651 3.233 4.651l-.005-.02c1.468.96 3.255 1.632 5.224 1.898.273.035.494.055.544.06l.002-.001c.036.004.067.01.102.01 1.066.093 2.102.055 3.092-.09a1.66 1.66 0 00-.004.114c0 .64.355 1.167.809 1.21-.931 1.584-1.685 3.686-1.688 3.696-.035.096-.11.276-.185.33-.23.051-.248.062-.502.141l.005-.003c-.086-.083-.821-.22-1.57.06.001.004.001.004.006.008a2.278 2.278 0 00-1.123 1.088c.305-.246.873-.646 1.335-.59-.547.311-1.494.907-1.602 1.764 0 0 3.285-2.304 4.905-1.88 0 0-.236.269.322 1.264l.254-.926c.292-.898-.833-1.03-1.306-1.05l.002-.01s.053-.144.144-.382c.28-.72.928-2.31 1.64-3.445a.437.437 0 00.029-.072l-.134-.184a1.5 1.5 0 00.148-.18c.094-.149.225-.401.227-.735 0-.262-.064-.593-.251-1.004l.42-.195.068.15c.006.02.013.036.018.05.013.034.027.069.038.103.007.015.013.035.02.052.01.037.021.072.034.106.002.01.009.025.012.037l2.404-.726-.533-.439h-.004l-.023-.023-.013-.01-9.092-8.278c.002 0 .005.004.005.004l-.003-.004a554.11 554.11 0 0010.479 4.975c4.927 2.27 8.047 3.593 9.657 4.252.013.01.028.015.04.02h.002l.603.245c.345.135.668.26.685.268.027-.016.06-.024.088-.039L11.889 29.34l11.36-7.847zm-12.722 3.885l-2.74 2.084 1.966-4.325v-.003c.313.663.576 1.42.776 2.244h-.002zm9.786 14.912l.068.329h-.002l3.203 1.888.81.471-.442-1.14c2.642.78 4.794.823 6.225.148l-.002.001c-2.49.736-8.667-1.344-9.86-1.697z" fill="#DC0D15"/><path d="M3.065 23.704c0 .442.999.384.999.384 0-.407-.758-.896-.758-.896s-.685.29-1.495 0c-.325-.117-.665-.079-.954.01-.383.255-.857.714-.857.714 1.788-.665 3.065-.212 3.065-.212zm6.688-.566l-1.967 4.324 2.74-2.084a11.938 11.938 0 00-.773-2.24zm20.435 18.845s-6.156-2.31-21.473-9.76l9.128 8.312h.004c.818-.34 1.393-.58 2.532.084l-.068-.33c1.191.354 7.391 2.445 9.877 1.694zm-14.822-.587c.187.41.251.742.251 1.004a1.39 1.39 0 01-.227.736c-.05.076-.146.18-.147.18l.273.374c.03-.019.563-.422.563-1.29 0-.338-.08-.738-.294-1.2l-.42.196zm-5.495.997c.434.07.83.105.83.105l.02-.23s-.387-.033-.812-.102l-.038.227zm-.312-19.648a6.814 6.814 0 00-.804-1.211l-2.447 1.791c-.988.522-1.509-.192-1.509-.192.181.155.422.25.69.25.58 0 1.047-.457 1.048-1.014a.966.966 0 00-.081-.395 1.032 1.032 0 00-.446-.481l.005-.001s-.216-.126-.17-.33c.045-.206.428-.605.428-.605l-.002.002 1.202-1.222.018-.022 1.092-1.109.528-.537c.1-.108.158-.178.158-.178l-1.422.606s-.027-.016.11-.27c.138-.252.471-.717.471-.717l-2.64 1.884c.153-.74 1.802-2.953 1.802-2.953l-1.742 1.594c-.117-.556.902-2.667.902-2.667a9.535 9.535 0 00-1.103 1.333c0-.61.462-1.48.462-1.48-2.116 2.115-2.703 4.763-2.85 5.748-.307.192-.119-.042-.265.31-1.42.401-2.227 1.668-2.41 1.983 1.152-1.422 2.603-1.28 2.603-1.28s1.732 3.2.978 2.941c-.759-.262-.395 1.01-.395 1.01l-1.417-.61c.233.462.693 1.55.43 2.684a8.578 8.578 0 00-.838 1.649l.485-.082c.095-.202.189-.387.283-.564.014-.023.028-.045.038-.067a1.55 1.55 0 01.063-.111l.037-.067c.02-.034.038-.07.06-.103.014-.025.028-.045.037-.066.022-.034.04-.07.064-.101a.498.498 0 01.034-.057c.02-.035.044-.07.065-.103a.28.28 0 01.034-.052c.02-.035.044-.07.069-.104.01-.016.016-.031.027-.044.03-.046.062-.09.092-.133l.004-.007c.03-.047.063-.089.094-.133.01-.01.02-.025.029-.037.022-.032.043-.06.066-.09a.44.44 0 01.037-.045 1.5 1.5 0 01.053-.075.287.287 0 00.039-.047l.051-.064c.013-.016.03-.031.04-.048.02-.021.033-.04.049-.059.015-.015.026-.031.04-.046a.356.356 0 01.048-.054c.01-.015.025-.03.036-.044.016-.02.032-.035.043-.052.015-.012.026-.03.04-.042.015-.015.027-.03.044-.046.01-.015.022-.024.034-.038a.555.555 0 00.044-.046.436.436 0 00.034-.037.257.257 0 01.042-.04.212.212 0 01.03-.03.974.974 0 01.04-.043c.012-.008.018-.019.028-.025l.062-.063c.012-.006.018-.014.028-.022.009-.012.023-.023.034-.033.007-.009.019-.017.025-.025.012-.01.024-.018.03-.03.012-.004.017-.012.028-.016.007-.012.018-.018.029-.026.006-.006.012-.015.02-.02.009-.006.015-.014.025-.021.006-.002.013-.01.02-.02.007 0 .014-.01.02-.014.008-.004.012-.01.02-.017.009-.003.013-.008.018-.013.006-.005.01-.007.014-.013.006-.002.013-.01.018-.011.007-.002.009-.009.011-.01.004-.004.012-.007.017-.01 0-.004.004-.006.006-.006.002-.006.007-.006.012-.009 0 0 .005-.003.005-.005.004-.003.006-.003.011-.005 0-.003.002-.003.002-.003l-.036.17-.44 2.064c1.666-2.063 4.125-4.457 5.282-5.551zm-4.893-.215l.19-.063c.005.026.017.05.026.07a.645.645 0 00.595.406.632.632 0 00.529-.295l-.198-.118a.43.43 0 00.036-.18.527.527 0 00-.045-.207l.433-.147c.156.46-.064.953-.498 1.102-.431.148-.91-.103-1.068-.568zm40.074 3.464c-.292-.078-.729-.12-1.297-.12H42.21v6.968l.13-.091 1.015-.715.036-.026v-1.972h.387c.716 0 1.297-.191 1.723-.562.43-.377.647-.89.647-1.526 0-.596-.204-1.096-.604-1.49a1.806 1.806 0 00-.804-.466zm-1.027 3.04h-.325v-2.137h.364c.932 0 1.401.345 1.401 1.034 0 .735-.482 1.102-1.44 1.102zm7.587.836a1.922 1.922 0 001.004-.66c.286-.354.427-.788.427-1.28 0-.63-.23-1.148-.683-1.535-.406-.344-1.073-.522-1.979-.522H48.8v6.97l.128-.092 1.018-.715.036-.026v-1.996h.056l1.897 2.717.046.069.069-.05.813-.587.07-.049-.05-.069L51.3 29.87zm-1.32-.837v-2.136h.365c.932 0 1.402.345 1.402 1.034 0 .735-.483 1.102-1.441 1.102h-.325zM33.593 26.08c-.401-.137-.95-.207-1.629-.207h-1.492v6.89h1.476c.686 0 1.224-.061 1.605-.19.404-.127.8-.357 1.171-.682.735-.653 1.113-1.516 1.113-2.573 0-1.046-.361-1.909-1.07-2.555a3.14 3.14 0 00-1.174-.683zm.33 4.962a2.196 2.196 0 01-.79.462c-.288.095-.663.141-1.106.141h-.374v-4.649h.374c.837 0 1.48.2 1.903.59.476.444.712 1.024.712 1.732 0 .706-.24 1.283-.718 1.724zm-7.754-4.175c.435 0 .866.125 1.286.372l.073.042.039-.072.492-.85.043-.072-.072-.043a3.561 3.561 0 00-1.79-.498c-1.128 0-2.06.422-2.769 1.26-.577.685-.87 1.473-.87 2.346 0 .97.351 1.817 1.038 2.506a3.484 3.484 0 002.523 1.03c.65 0 1.277-.17 1.868-.505l.042-.026v-.07l-.01-.018-.495-.857-.043-.075-.075.05c-.138.088-.274.16-.398.212-.24.112-.534.167-.88.167-.662 0-1.23-.236-1.69-.702-.456-.465-.689-1.047-.689-1.726 0-.688.233-1.28.69-1.751a2.244 2.244 0 011.687-.72zm77.669.13l.023-.024.935-.955.141-.145h-3.994v6.89h2.918l.023-.022.915-.955.135-.141h-2.81v-2.14h.867l.023-.025.949-.952.14-.144h-1.979v-1.388h1.714zm-20.213 0h1.545v5.845l.132-.091 1.014-.715.036-.026v-5.014h1.543v-1.123h-4.27v1.123zM58.64 25.749a3.52 3.52 0 00-2.55 1.043c-.71.692-1.067 1.533-1.067 2.497 0 1.096.393 1.998 1.169 2.677.702.611 1.508.922 2.395.922.998 0 1.864-.35 2.57-1.04a3.393 3.393 0 001.063-2.52c0-.977-.355-1.83-1.057-2.526-.698-.699-1.546-1.053-2.523-1.053zm1.686 5.312c-.47.469-1.05.705-1.73.705-.62 0-1.181-.233-1.656-.695-.483-.46-.726-1.054-.726-1.772 0-.679.236-1.26.699-1.723a2.326 2.326 0 011.713-.709c.676 0 1.25.24 1.707.71.463.466.696 1.052.696 1.741a2.41 2.41 0 01-.703 1.743zm51.661-4.298a3.15 3.15 0 00-1.179-.683c-.4-.137-.945-.207-1.627-.207h-1.494v6.89h1.477c.686 0 1.228-.061 1.608-.19a3.302 3.302 0 001.169-.682c.738-.653 1.112-1.516 1.112-2.573 0-1.046-.357-1.909-1.066-2.555zm-.844 4.279a2.256 2.256 0 01-.791.462c-.292.095-.663.141-1.109.141h-.374v-4.649h.374c.84 0 1.48.2 1.907.59.473.444.711 1.024.711 1.732 0 .706-.238 1.283-.718 1.724zM96.4 29.87a1.931 1.931 0 001.004-.66c.286-.354.427-.788.427-1.28 0-.63-.23-1.148-.683-1.535-.41-.344-1.073-.522-1.979-.522h-1.273v6.97l.131-.092 1.018-.715.036-.026v-1.996h.055l1.894 2.717.05.069.068-.05.814-.587.065-.049-.045-.069L96.4 29.87zm-1.32-.837v-2.136h.361c.936 0 1.403.345 1.403 1.034 0 .735-.48 1.102-1.442 1.102h-.321zM80.395 25.9l-2.474 2.536v-2.638l-.132.095-1.013.712-.037.026v6.211l.135-.091 1.014-.715.033-.026v-2.078l.12-.118 2.364 2.92.046.059.066-.042.87-.588.075-.052-.06-.073-2.516-3.031 2.986-2.99.141-.144h-1.591l-.027.027zm-14.535.708l-.037.027v3.671c0 .555-.059.945-.173 1.161-.102.204-.283.3-.552.3-.196 0-.41-.076-.64-.23l-.075-.05-.043.075-.502.867-.04.072.07.043c.38.227.793.344 1.23.344.585 0 1.06-.213 1.414-.626.181-.21.31-.47.388-.771.072-.262.111-.65.111-1.181v-4.512l-.134.095-1.017.715zm7.263.388l.025-.023.936-.955.138-.145h-3.99v6.89h2.913l.027-.022.912-.955.135-.141h-2.806v-2.14h.863l.023-.025.948-.952.141-.144h-1.975v-1.388h1.71zm41.922 1.159c-.664 0-1.205-.54-1.205-1.205 0-.67.541-1.204 1.205-1.204.671 0 1.205.534 1.205 1.204 0 .664-.534 1.205-1.205 1.205zm0-2.228c-.568 0-1.023.45-1.023 1.023a1.022 1.022 0 002.046 0c0-.574-.454-1.023-1.023-1.023zm.33 1.716l-.358-.545h-.239v.545h-.193v-1.38h.563c.233 0 .448.164.448.42a.404.404 0 01-.351.409l.369.55h-.239zm-.227-1.21h-.37v.488h.37c.119 0 .249-.095.249-.238a.25.25 0 00-.249-.25z" fill="#000"/></svg>