<svg width="44" height="44" fill="none" xmlns="http://www.w3.org/2000/svg"><path d="M21.926 44c-.217 0-.435-.004-.651-.01l4.48-12.357h6.167c1.083 0 2.271-.834 2.641-1.855l4.861-13.398c.796-2.193-.456-3.988-2.783-3.988h-8.555l-7.178 19.791h-.003l-4.069 11.22C7.182 41.1 0 32.392 0 22 0 11.908 6.773 3.404 16.007.812l-4.2 11.58-6.98 19.241h4.646l5.936-16.35h3.493l-5.937 16.35 4.645.002 5.532-15.255c.796-2.193-.456-3.988-2.78-3.988h-3.906L20.94.023c.327-.014.655-.023.985-.023 12.11 0 21.926 9.85 21.926 22s-9.816 22-21.926 22zm13.267-28.728H31.7l-4.889 13.46h3.491l4.89-13.46z" fill="#000"/></svg>