<svg width="32" height="50" fill="none" xmlns="http://www.w3.org/2000/svg"><path d="M8.468 44.551c.723-.778 1.574-1.657 2.082-2.07-.143-.012-.369-.04-.613-.077-.53.482-1.205 1.187-1.81 1.833a65.306 65.306 0 00-1.398 1.552c-.01.007-.013.02-.023.028-.5.138-1.35.372-1.916.526-.838.232-1.59.175-1.59.723 0 0-.867.465-.665 1.158 0 0 1.74-1.39 3.23-1.625 0 0-.91.592-.827 1.394 0 0 1.226-1.834 2.657-.722 0 0-.638-.867-.372-1.344.229-.26.703-.792 1.245-1.376zM5.711 22.897a.566.566 0 01-.233.046.645.645 0 01-.596-.405.348.348 0 01-.025-.071l-.189.062c.159.463.637.717 1.068.567a.773.773 0 00.281-.17.883.883 0 00.215-.93l-.433.147a.523.523 0 01.046.207.414.414 0 01-.037.177l.198.12a.7.7 0 01-.127.147.528.528 0 01-.168.103zm17.538-1.404l-8.56 2.087v-.009l.003.01 16.72-7.233-13.78 1.687 7.376-5.386-7.903 3.085 1.193-2.395-5.654 4.071-.047-.086L20.612 0 7.578 15.424l-.082-8.41-4.782 11.24-.249-3.313L.11 23.563l.004-.002v.002s.318-.235.745-.363l.103-.028c.005 0 .009-.004.014-.004.035-.007.069-.015.103-.02.004 0 .01-.005.016-.005a.905.905 0 01.109-.013v-.004l.107-.008h.023a.665.665 0 01.124.003.49.49 0 01.099.01l.018.001a.821.821 0 01.13.026c.035.009.072.019.112.032.806.292 1.491 0 1.491 0s.76.487.76.896h-.003v.002s-.998.058-.998-.384c0 0-1.278-.454-3.065.209l3.77 1.62c-.003-.017-.202-.719.016-.963.069-.084.19-.114.379-.05.069.025.119.019.15-.011.293-.303-1.128-2.927-1.128-2.927S1.91 21.458.807 22.613a3.39 3.39 0 00-.22.249v-.004.004a4.82 4.82 0 011.068-1.261c.358-.3.806-.57 1.34-.722.146-.35-.04-.122.262-.307.002 0 .002-.003.002-.003.142-.925.666-3.308 2.473-5.347.122-.135.246-.272.379-.401 0 0-.463.87-.463 1.476.013-.015.47-.701 1.103-1.329v-.002s-.008.01-.017.027c-.117.251-.98 2.09-.89 2.627.003.005.005.008.005.013l1.742-1.595-.007.004c-.05.07-1.636 2.212-1.792 2.947v.005l2.637-1.884-.002.003c-.01.016-.332.467-.469.714-.096.177-.11.237-.11.255l.004.014 1.42-.608s-.061.073-.16.18l-.529.538-.13.138-.961.97-.018.023-.73.742-.47.478s-.383.399-.43.606c-.045.203.171.329.171.329h-.002c.195.109.353.277.445.479.051.122.08.255.08.397 0 .28-.114.533-.306.716a1.067 1.067 0 01-1.428.05c.032.043.551.695 1.505.188l1.178-.858.05-.04 1.218-.89c.288.338.559.747.805 1.21a86.374 86.374 0 00-3.19 3.183 41.38 41.38 0 00-2.092 2.369l.44-2.064.036-.17s-.002 0-.002.003c-.005.002-.008.002-.011.005 0 .002-.006.005-.006.005-.004.002-.009.002-.012.01a.006.006 0 00-.006.006.05.05 0 00-.016.009c-.003.001-.004.008-.012.01-.004.002-.01.009-.017.01a.05.05 0 01-.015.014c-.005.005-.008.01-.018.012-.007.007-.011.014-.019.017-.006.006-.013.014-.02.015a.053.053 0 01-.02.02l-.026.021a.126.126 0 00-.02.02c-.01.008-.021.014-.028.025-.012.005-.016.013-.028.017-.007.012-.018.02-.03.03-.006.008-.018.016-.025.025-.012.01-.026.02-.035.033-.009.008-.015.016-.027.022a.155.155 0 01-.04.04.123.123 0 00-.022.022.275.275 0 01-.026.023c0 .003-.002.003-.002.003a.798.798 0 00-.04.043c-.013.007-.022.02-.03.03-.017.013-.029.027-.042.04-.012.01-.024.024-.035.034-.009.014-.02.025-.027.034-.005.003-.011.01-.016.015 0 .002-.005.005-.01.01l-.025.026c-.011.014-.023.024-.034.038-.003.005-.005.009-.01.01l-.013.012a.097.097 0 01-.023.027.248.248 0 01-.046.05c-.012.018-.026.03-.037.048l-.046.051-.04.048c-.017.02-.03.04-.05.059l-.04.05-.05.064c-.013.012-.024.03-.039.046-.017.026-.036.048-.054.073-.014.018-.026.03-.035.047l-.069.089c-.007.012-.019.025-.025.036-.032.045-.066.09-.097.136l-.004.005-.092.134a.587.587 0 01-.027.043c-.021.034-.046.07-.069.105-.012.018-.021.035-.035.052-.02.035-.041.065-.064.1l-.034.058c-.019.035-.042.07-.064.104-.01.021-.023.041-.034.063-.022.035-.04.071-.063.106-.012.018-.025.043-.037.064-.021.04-.042.075-.063.112l-.033.067c-.097.179-.191.363-.288.563v.003l-.485.081c.097-.25.193-.476.297-.69l-.79 1.112.79-.077c-.676 1.553-1.172 3.586-1.172 6.48l.643-.406c.568 3.231 3.233 4.651 3.233 4.651l-.005-.02c1.468.96 3.255 1.632 5.224 1.898.273.035.494.055.544.06l.002-.001c.036.004.067.01.102.01 1.066.093 2.102.055 3.092-.09a1.66 1.66 0 00-.004.114c0 .64.355 1.167.809 1.21-.931 1.584-1.685 3.686-1.688 3.696-.035.096-.11.276-.185.33-.23.051-.248.062-.502.141l.005-.003c-.086-.083-.821-.22-1.57.06.001.004.001.004.006.008a2.278 2.278 0 00-1.123 1.088c.305-.246.873-.646 1.335-.59-.547.311-1.494.907-1.602 1.764 0 0 3.285-2.304 4.905-1.88 0 0-.236.269.322 1.264l.254-.926c.292-.898-.833-1.03-1.306-1.05l.002-.01s.053-.144.144-.382c.28-.72.928-2.31 1.64-3.445a.437.437 0 00.029-.072l-.134-.184a1.5 1.5 0 00.148-.18c.094-.149.225-.401.227-.735 0-.262-.064-.593-.251-1.004l.42-.195.068.15c.006.02.013.036.018.05.013.034.027.069.038.103.007.015.013.035.02.052.01.037.021.072.034.106.002.01.009.025.012.037l2.404-.726-.533-.439h-.004l-.023-.023-.013-.01-9.092-8.278c.002 0 .005.004.005.004l-.003-.004a554.11 554.11 0 0010.479 4.975c4.927 2.27 8.047 3.593 9.657 4.252.013.01.028.015.04.02h.002l.603.245c.345.135.668.26.685.268.027-.016.06-.024.088-.039L11.889 29.34l11.36-7.847zm-12.722 3.885l-2.74 2.084 1.966-4.325v-.003c.313.663.576 1.42.776 2.244h-.002zm9.786 14.912l.068.329h-.002l3.203 1.888.81.471-.442-1.14c2.642.78 4.794.823 6.225.148l-.002.001c-2.49.736-8.667-1.344-9.86-1.697z" fill="#DC0D15"/></svg>