<svg width="20" height="24" fill="none" xmlns="http://www.w3.org/2000/svg"><path d="M16.715 17.653h-1.288l.006-.754a.61.61 0 01.607-.608h.082a.61.61 0 01.607.608l-.014.754zm-4.829-1.615c-.326 0-.593.221-.593.492v3.665c0 .27.267.49.593.49.328 0 .596-.22.596-.49V16.53c0-.27-.268-.492-.596-.492zm7.841-2.05v6.972c0 1.672-1.439 3.04-3.198 3.04H3.38C1.62 24 .183 22.632.183 20.96v-6.972c0-1.672 1.438-3.04 3.198-3.04h13.15c1.758 0 3.197 1.368 3.197 3.04zm-15.47 7.729l-.001-7.344h1.63v-1.087l-4.346-.007v1.07l1.357.004v7.364h1.36zm4.886-6.25H7.784v3.921c0 .568.034.851-.002.951-.11.304-.607.627-.8.033-.034-.104-.005-.418-.005-.957l-.006-3.948H5.62l.004 3.886c0 .596-.013 1.04.005 1.242.033.356.02.772.349 1.01.611.443 1.783-.067 2.077-.701l-.003.81h1.091v-6.247zm4.348 4.49l-.003-3.263c-.001-1.244-.924-1.99-2.178-.983l.005-2.426-1.357.002-.007 8.375 1.116-.016.102-.522c1.427 1.32 2.324.416 2.322-1.167zm4.253-.432l-1.02.005-.001.14v.572a.558.558 0 01-.557.557h-.2a.558.558 0 01-.557-.557v-1.507h2.333v-.885c0-.647-.016-1.293-.07-1.663-.166-1.17-1.795-1.356-2.618-.757a1.543 1.543 0 00-.57.774c-.117.336-.174.796-.174 1.38v1.946c0 3.235 3.9 2.777 3.434-.005zM12.517 8.96c.07.172.179.31.327.416a.942.942 0 00.556.155.86.86 0 00.52-.163c.151-.11.278-.273.382-.491l-.026.537h1.515V2.922h-1.193v5.053a.499.499 0 01-.497.497.5.5 0 01-.496-.497V2.922H12.36V7.3c0 .557.01.93.027 1.118.017.187.06.367.13.54zm-4.59-3.667c0-.623.05-1.11.153-1.46.103-.35.289-.631.557-.843.268-.213.61-.32 1.027-.32.35 0 .65.07.902.205a1.5 1.5 0 01.58.533c.138.22.231.445.281.676.051.234.076.587.076 1.063V6.79c0 .602-.024 1.045-.07 1.327a2.117 2.117 0 01-.299.789 1.422 1.422 0 01-.583.54c-.24.116-.513.174-.822.174-.345 0-.636-.048-.876-.149-.24-.1-.426-.25-.558-.45a2.007 2.007 0 01-.285-.728c-.057-.284-.084-.71-.084-1.28v-1.72zm1.186 2.58c0 .367.271.667.602.667.33 0 .601-.3.601-.668V4.416c0-.367-.27-.667-.601-.667-.33 0-.602.3-.602.667v3.456zM4.92 9.616h1.43v-4.98L8.04.373H6.475L5.58 3.541 4.668.364H3.121L4.918 4.64l.002 4.977z" fill="#000"/></svg>